<svg version="1" xmlns="http://www.w3.org/2000/svg" width="1666.667" height="1666.667" viewBox="0 0 1250.000000 1250.000000"><path d="M0 625v625h1250V0H0v625zm1038-212.5c41.5 42.5 75.5 77.8 75.5 78.4 0 1.5-503.6 595.6-504.9 595.6-.5 0-91.2-106.4-201.4-236.5S183.5 586 155 552.3l-51.9-61.2 78.9-78 78.8-78.1h701.7l75.5 77.5z"/><path d="M384.7 383.8c-1.6 1.7-1.7 17.1-1.7 200.6v198.7l2.5 2.4 2.4 2.5h93l1.5-2.2c1.4-2 1.6-10.8 1.6-75 0-83.4-1.2-74.8 10.4-74.8 4.5 0 6.9.5 8 1.6 1.4 1.4 1.6 9.5 1.6 74.3 0 69.2.1 72.9 1.8 74.4s6.5 1.7 49 1.7h47.1l1.5-2.2c1.4-2 1.6-22.8 1.6-201.4 0-191.6-.1-199.2-1.8-200.7s-6.6-1.7-49.3-1.7c-35.6 0-47.8.3-48.7 1.2-.9.9-1.2 18.7-1.2 74 0 70.9 0 72.8-1.9 73.8-2.7 1.4-15.4 1.3-16.9-.2-.9-.9-1.2-18.7-1.2-74 0-70.9 0-72.8-1.9-73.8-1.3-.6-18.5-1-48.9-1-44.2 0-47 .1-48.5 1.8zM626.2 383.2c-.9.9-1.2 13.9-1.2 52.3v51.2l2.3 2.1c2.3 2.2 2.9 2.2 31.6 2.2h29.2l2.4 2.5 2.5 2.4v287.2l2.5 2.4 2.4 2.5h97.2l2.4-2.5 2.5-2.4v-288l2.6-2c2.6-2 3.8-2.1 32-2.1 28.1 0 29.5-.1 31.4-2 1.9-1.9 2-3.3 2-52.5s-.1-50.6-2-52.5c-2-2-3.3-2-120.3-2-90.7 0-118.6.3-119.5 1.2z"/></svg>